<svg width="1291" height="1230" viewBox="0 0 1291 1230" fill="none" xmlns="http://www.w3.org/2000/svg">
<path d="M1112.5 732.282C1068.31 674.844 977.5 644.318 979.657 625.873C981.814 607.428 1258.14 490.992 1271.57 400.578C1284.01 316.88 1292.72 252.737 1288.95 228.211C1284.32 198.116 1272.24 134.956 1233.44 102.95C1215.33 88.0094 1174.33 59.914 1105.43 37.9328C1033.37 14.9427 990.704 2.45126 972.321 1.71731C915.075 -0.56835 835.062 8.91525 771.263 86.5114C747.362 115.581 681.999 290.687 665.837 295C649.675 299.313 637.399 246.589 607.102 175.475C591.349 138.5 594.986 125.244 550.677 84.7719C506.369 44.3002 399.015 -4.13338 293.634 1.44034C209.966 5.86567 110.257 45.341 91.4652 73.2341C59.3097 120.962 39.6638 168.915 22.8852 220.1C6.30713 270.673 -4.40296 321.945 3.84269 362.294C15.8398 421 22.8877 452 58.3136 492.513C124.706 568.438 269.839 569 269.839 600C269.839 631 208.837 643.5 173.337 659C144.764 671.475 115.627 685.766 94.4727 709.34C61.1617 746.459 44.6919 782.485 29.7632 830.731C9.35649 896.68 5.01687 948.821 4.14892 974.656C3.09069 1006.16 13.3116 1037.49 26.7579 1066.86C53.0542 1124.31 81.6263 1142.88 130.79 1170.27C165.349 1189.53 213.491 1197.66 257.005 1206.6C286.813 1212.72 307.689 1209.56 333.869 1202.91C379.039 1191.44 427.704 1174.22 463.728 1147.52C569.769 1068.93 559.418 982.653 597.814 941.695C645.468 1025.74 627.842 1101.88 727.253 1189.7C744.297 1204.76 760.608 1212.18 785.955 1218.55C822.045 1227.61 844.203 1237.03 899.298 1217.69C946.39 1201.16 1085.7 1193.42 1163.03 1081.88C1225.33 992.019 1209.46 917.157 1198.85 861.757C1193.2 832.269 1153.97 786.187 1112.5 732.282Z" fill="white" stroke="white" stroke-width="2" stroke-linecap="round"/>
</svg>
